<svg width="79" height="79" viewBox="0 0 79 79" fill="none" xmlns="http://www.w3.org/2000/svg">
<g id="Frame">
<path id="Vector" d="M46.2273 31.7238C47.2766 29.6377 47.8691 27.2553 47.8691 24.7495C47.8691 20.4292 46.1162 16.5163 43.2895 13.6772C40.4628 10.8381 36.5375 9.09766 32.2172 9.09766H18.6761C10.665 9.09766 3.62907 14.9363 2.69094 22.8856C2.30828 26.1073 2.93782 29.1686 4.2586 31.7978C4.27094 31.8102 4.27094 31.8225 4.27094 31.8225L2.20953 45.1414C2.32063 45.1414 14.1953 39.883 14.1953 39.883C14.2077 39.8706 14.2323 39.8706 14.2447 39.8706C15.5161 40.2286 16.8616 40.4014 18.2441 40.4014H32.2172C32.39 40.4014 32.5875 40.4014 32.7603 40.3891L46.2273 31.7238Z" fill="#3EBCFE"/>
<path id="Vector_2" d="M76.7905 67.7547C76.7905 67.8041 64.8047 62.4963 64.8047 62.4963C64.7924 62.4839 64.7677 62.4839 64.7553 62.4839C63.4839 62.8419 62.1385 63.0147 60.756 63.0147H46.7828C38.1422 63.0147 31.131 56.0034 31.131 47.3628C31.131 43.0425 32.8838 39.1295 35.7105 36.2905C38.5495 33.4514 42.4625 31.7109 46.7828 31.7109H60.3239C68.335 31.7109 75.3709 37.5495 76.3091 45.4989C76.6917 48.7206 76.0622 51.7819 74.7414 54.4111C74.7291 54.4234 74.7291 54.4358 74.7291 54.4358L76.7905 67.7547Z" fill="#FFD37B"/>
<path id="Vector_3" d="M22.7742 34.8834C17.4911 34.8834 13.1831 30.5877 13.1831 25.2923C13.1831 20.0091 17.4911 15.7012 22.7742 15.7012C28.0574 15.7012 32.3653 19.9968 32.3653 25.2923C32.3653 30.5877 28.0574 34.8834 22.7742 34.8834ZM22.7742 18.1823C18.8489 18.1823 15.6519 21.3793 15.6519 25.3046C15.6519 29.2299 18.8489 32.427 22.7742 32.427C26.6995 32.427 29.8966 29.2299 29.8966 25.3046C29.8966 21.3793 26.6995 18.1823 22.7742 18.1823Z" fill="#495057"/>
<path id="Vector_4" d="M31.1309 35.7347C30.81 35.7347 30.5014 35.6113 30.2545 35.3767L23.5272 28.6494C23.0458 28.168 23.0458 27.3903 23.5272 26.9089C24.0086 26.4275 24.7863 26.4275 25.2677 26.9089L31.995 33.6363C32.4764 34.1177 32.4764 34.8953 31.995 35.3767C31.7605 35.6113 31.4395 35.7347 31.1309 35.7347ZM58.9538 49.967H48.943C48.2641 49.967 47.7086 49.4116 47.7086 48.7327C47.7086 48.0537 48.2641 47.4983 48.943 47.4983H58.9538C59.6327 47.4983 60.1881 48.0537 60.1881 48.7327C60.1881 49.4116 59.6327 49.967 58.9538 49.967Z" fill="#495057"/>
<path id="Vector_5" d="M45.4003 56.9914C45.2152 56.9914 45.03 56.9544 44.8448 56.8556C44.24 56.547 43.9931 55.8064 44.3017 55.2016L52.8559 38.2659C53.0658 37.8463 53.4978 37.587 53.9545 37.587C54.4236 37.587 54.8433 37.8463 55.0531 38.2659L63.6073 55.2016C63.9159 55.8064 63.6691 56.547 63.0642 56.8556C62.447 57.1642 61.7188 56.9173 61.4102 56.3125L53.9669 41.5617L46.5236 56.3125C46.2891 56.7445 45.857 56.9914 45.4003 56.9914ZM2.20953 46.3758C1.85156 46.3758 1.50594 46.2153 1.27141 45.9438C1.03687 45.6722 0.938124 45.3019 0.987499 44.9562L2.99953 32.02C1.62937 29.1439 1.09859 25.9469 1.46891 22.7498C2.46875 14.2573 9.86266 7.86328 18.6761 7.86328H32.2172C36.735 7.86328 40.9689 9.61609 44.1536 12.8131C47.3383 16.0102 49.1034 20.2441 49.1034 24.7495C49.1034 27.3664 48.4863 29.9709 47.3259 32.2792C47.0173 32.8841 46.2767 33.1309 45.6719 32.8223C45.067 32.5138 44.8202 31.7731 45.1288 31.1683C46.1163 29.2056 46.6347 26.9837 46.6347 24.7495C46.6347 20.8983 45.1411 17.2816 42.4131 14.5536C39.6852 11.8256 36.0684 10.332 32.2172 10.332H18.6761C11.1094 10.332 4.76469 15.788 3.91297 23.0214C3.57969 25.8605 4.08578 28.6872 5.35719 31.23C5.45594 31.4152 5.50531 31.6127 5.50531 31.8102C5.50531 31.8719 5.50531 31.9336 5.49297 31.9953L3.76484 43.117C6.24594 42.0308 10.5539 40.1298 13.6892 38.7473C13.9731 38.6239 14.2817 38.5992 14.5656 38.6733C15.7259 38.9942 16.9603 39.1547 18.2441 39.1547H32.2172C32.3653 39.1547 32.5258 39.1547 32.6862 39.1423C33.3528 39.093 33.9577 39.6114 33.9947 40.2903C34.0317 40.9692 33.5256 41.5617 32.8467 41.5988C32.6492 41.6111 32.427 41.6111 32.2295 41.6111H18.2564C16.9109 41.6111 15.6025 41.4506 14.3434 41.142C2.57984 46.3758 2.5675 46.3758 2.20953 46.3758Z" fill="#495057"/>
<path id="Vector_6" d="M77.0374 68.94C76.3091 68.94 74.2724 68.0389 64.6566 63.7927C63.4099 64.1013 62.0891 64.2618 60.7436 64.2618H46.7828C37.4756 64.2618 29.8966 56.6827 29.8966 47.3755C29.8966 42.8577 31.6494 38.6238 34.8464 35.4391C38.0311 32.2544 42.2774 30.4893 46.7828 30.4893H60.3239C69.1374 30.4893 76.5436 36.8833 77.5311 45.3635C77.9014 48.5605 77.3706 51.7575 76.0005 54.6336L78.0125 67.5822C78.0866 68.0636 77.8767 68.545 77.4694 68.8043C77.3336 68.8783 77.2349 68.94 77.0374 68.94ZM65.2985 61.3733C68.4461 62.7682 72.7417 64.6568 75.2352 65.743L73.507 54.6213C73.4947 54.5596 73.4947 54.4978 73.4947 54.4361C73.4947 54.2386 73.5441 54.0411 73.6428 53.856C74.9266 51.3255 75.4203 48.4864 75.087 45.6474C74.2353 38.4139 67.8906 32.9457 60.3239 32.9457H46.7828C42.9316 32.9457 39.3149 34.4393 36.5869 37.1672C33.8589 39.8952 32.3653 43.5119 32.3653 47.3632C32.3653 55.3125 38.8335 61.7807 46.7828 61.7807H60.7436C62.015 61.7807 63.2617 61.6202 64.422 61.2993C64.6936 61.2252 65.0145 61.2499 65.2985 61.3733Z" fill="#495057"/>
</g>
</svg>
